<svg version="1.1" xmlns="http://www.w3.org/2000/svg" xmlns:xlink="http://www.w3.org/1999/xlink" width="48" height="48"><defs><linearGradient x1="11.67152" y1="11.67152" x2="55.0661" y2="55.0661" gradientUnits="userSpaceOnUse" id="color-1"><stop offset="0" stop-color="#000000" stop-opacity="0.25"></stop><stop offset="1" stop-color="#000000" stop-opacity="0"></stop></linearGradient><filter id="dropshadow-base"><feColorMatrix type="matrix" values="0 0 0 0 0  0 0 0 0 0  0 0 0 0 0  0 0 0 .8 0"></feColorMatrix> <feOffset dx="0" dy="1"></feOffset> <feGaussianBlur stdDeviation="1"></feGaussianBlur> <feComposite in="SourceGraphic"></feComposite></filter><filter id="dropshadow-banner" x="-10%" y="-10%" width="120%" height="130%"><feColorMatrix type="matrix" values="0 0 0 0 0  0 0 0 0 0  0 0 0 0 0  0 0 0 .4 0"></feColorMatrix> <feOffset dx="0" dy="1"></feOffset> <feGaussianBlur stdDeviation="0.5"></feGaussianBlur> <feComposite in="SourceGraphic"></feComposite></filter></defs><g fill="none" fill-rule="nonzero" stroke="none" stroke-width="none" stroke-linecap="butt" stroke-linejoin="miter" stroke-miterlimit="10" stroke-dasharray="" stroke-dashoffset="0" font-family="none" font-weight="none" font-size="none" text-anchor="none" style="mix-blend-mode: normal"><path d="M2,24c0,-12.15026 9.84974,-22 22,-22c12.15026,0 22,9.84974 22,22c0,12.15026 -9.84974,22 -22,22c-12.15026,0 -22,-9.84974 -22,-22z" id="base 1 5" fill="#512da8" stroke-width="1"></path><path d="M32.71773,15.28679l12.88689,12.88689c-1.69095,8.80521 -8.63127,15.7438 -17.4374,17.43217l-12.88356,-12.88356c-2.23193,-2.23193 -3.61214,-5.31656 -3.61214,-8.7223c0,-6.80532 5.51083,-12.32848 12.31615,-12.32848c3.41037,0 6.49682,1.38204 8.73005,3.61527z" fill="url(#color-1)" stroke-width="1"></path><path d="M23.98767,11.67152c-6.80532,0 -12.31615,5.52316 -12.31615,12.32848c0,6.80532 5.51083,12.32848 12.31615,12.32848c6.81765,0 12.34081,-5.52316 12.34081,-12.32848c0,-6.80532 -5.52316,-12.32848 -12.34081,-12.32848zM29.2396,29.11632l-6.47245,-3.88347v-7.39709h1.84927v6.47245l5.54782,3.2917z" fill="none" stroke-width="0"></path><path d="M36.32848,24c0,6.80532 -5.52316,12.32848 -12.34081,12.32848c-6.80532,0 -12.31615,-5.52316 -12.31615,-12.32848c0,-6.80532 5.51083,-12.32848 12.31615,-12.32848c6.81765,0 12.34081,5.52316 12.34081,12.32848zM30.16424,27.59992l-5.54782,-3.2917v-6.47245h-1.84927v7.39709l6.47245,3.88347z" fill="#ffffff" stroke-width="0"></path><path d="M2,24c0,-12.15026 9.84974,-22 22,-22c12.15026,0 22,9.84974 22,22c0,12.15026 -9.84974,22 -22,22c-12.15026,0 -22,-9.84974 -22,-22z" id="base 1 1 1" fill="none" stroke-width="1"></path><g fill="#000000" stroke-width="1" font-family="Roboto, sans-serif" font-weight="400" font-size="14" text-anchor="start"></g><rect x="2" y="2" width="44" height="22" fill="none" stroke-width="1"></rect><path d="M2,24v-22h44v22z" fill="none" stroke-width="1"></path><path d="M2,24v-22h44v22z" fill="none" stroke-width="1"></path><path d="M2,24v-22h44v22z" fill="none" stroke-width="1"></path><path d="M2,24v-22h44v22z" fill="none" stroke-width="1"></path></g></svg>